<svg xmlns="http://www.w3.org/2000/svg" style="display: none;">
  <symbol id="icon-camera" viewBox="0 0 24 24">
    <path d="M12 2L2 7v10l10 5 10-5V7L12 2z" />
  </symbol>
  <symbol id="icon-heart" viewBox="0 0 24 24">
    <path d="M12 21.35l-1.45-1.32C5.4 15.36 2 12.28 2 8.5 2 5.42 4.42 3 7.5 3c1.74 0 3.41.81 4.5 2.09C13.09 3.81 14.76 3 16.5 3 19.58 3 22 5.42 22 8.5c0 3.78-3.4 6.86-8.55 11.54L12 21.35z" />
  </symbol>
  <symbol id="icon-Vector" viewBox="0 0 32 32">
    <path fill="#fff" style="fill: var(--color1, #fff)" d="M14.4 27.96l-8.016-4.608c-0.504-0.288-0.888-0.672-1.176-1.152s-0.408-1.032-0.408-1.608v-9.192c0-0.6 0.12-1.128 0.408-1.608s0.672-0.864 1.176-1.152l8.016-4.608c0.504-0.288 1.032-0.432 1.584-0.432 0.576 0 1.104 0.144 1.608 0.432l7.992 4.608c0.504 0.288 0.912 0.672 1.176 1.152 0.288 0.48 0.432 1.008 0.432 1.608v9.192c0 0.576-0.144 1.128-0.432 1.608-0.264 0.48-0.672 0.864-1.176 1.152l-7.992 4.608c-0.504 0.288-1.032 0.432-1.608 0.432-0.552 0-1.080-0.144-1.584-0.432zM14.4 24.264v-7.344l-6.408-3.72v7.392l6.408 3.672zM17.592 24.264l6.408-3.672v-7.392l-6.408 3.72v7.344zM1.584 9.6c-0.456 0-0.84-0.168-1.128-0.48-0.312-0.312-0.456-0.672-0.456-1.128v-4.8c0-0.888 0.312-1.632 0.936-2.256s1.368-0.936 2.256-0.936h4.8c0.456 0 0.84 0.144 1.128 0.456 0.312 0.312 0.48 0.672 0.48 1.128-0.024 0.456-0.168 0.84-0.48 1.152-0.288 0.312-0.672 0.456-1.128 0.456h-4.8v4.8c0 0.456-0.168 0.84-0.456 1.128-0.312 0.312-0.696 0.48-1.152 0.48zM3.192 31.992c-0.888 0-1.632-0.312-2.256-0.936s-0.936-1.392-0.936-2.256v-4.8c0-0.456 0.144-0.84 0.456-1.152s0.672-0.456 1.128-0.456c0.456 0 0.84 0.144 1.152 0.456s0.456 0.696 0.456 1.152v4.8h4.8c0.456 0 0.84 0.144 1.128 0.456 0.312 0.312 0.48 0.672 0.48 1.128-0.024 0.456-0.168 0.84-0.48 1.152-0.288 0.312-0.672 0.456-1.128 0.456h-4.8zM28.8 31.992h-4.8c-0.456 0-0.84-0.168-1.152-0.456-0.312-0.312-0.456-0.696-0.456-1.152s0.144-0.816 0.456-1.128c0.312-0.312 0.696-0.456 1.152-0.456h4.8v-4.8c0-0.456 0.144-0.84 0.456-1.152s0.672-0.456 1.128-0.456c0.456 0 0.84 0.144 1.152 0.456s0.456 0.696 0.456 1.152v4.8c0 0.864-0.312 1.632-0.936 2.256s-1.392 0.936-2.256 0.936zM28.8 7.992v-4.8h-4.8c-0.456 0-0.84-0.168-1.152-0.456-0.312-0.312-0.456-0.696-0.456-1.152s0.144-0.816 0.456-1.128c0.312-0.312 0.696-0.456 1.152-0.456h4.8c0.864 0 1.632 0.312 2.256 0.936s0.936 1.368 0.936 2.256v4.8c0 0.456-0.168 0.84-0.456 1.128-0.312 0.312-0.696 0.48-1.152 0.48-0.456-0.024-0.816-0.168-1.128-0.48-0.312-0.288-0.456-0.672-0.456-1.128zM15.984 14.136l6.312-3.696-6.312-3.648-6.312 3.648 6.312 3.696z"></path>
    </symbol>
</svg>